<?xml version="1.0" standalone="no"?><!DOCTYPE svg PUBLIC "-//W3C//DTD SVG 1.1//EN" "http://www.w3.org/Graphics/SVG/1.1/DTD/svg11.dtd"><svg height="1024" legacy-metrics="false" node-id="1" sillyvg="true" template-height="1024" template-width="1024" version="1.1" viewBox="0 0 1024 1024" width="1024" xmlns="http://www.w3.org/2000/svg" xmlns:xlink="http://www.w3.org/1999/xlink"><defs node-id="24"><radialGradient cx="0.50000006" cy="0.175" fx="0.50000006" fy="0.175" gradientUnits="objectBoundingBox" id="radialGradient-1" node-id="5" r="0.82500005"><stop offset="0" stop-color="#ffdd70"></stop><stop offset="1" stop-color="#f1823a"></stop></radialGradient><filter height="2.253" id="filter-3" node-id="9" width="1.994" x="-0.497" y="-0.626"><feGaussianBlur color-interpolation-filters="linearRGB" in="SourceGraphic" result="result1" stdDeviation="34.08 34.08"></feGaussianBlur></filter><filter height="2.253" id="filter-4" node-id="11" width="1.994" x="-0.497" y="-0.626"><feGaussianBlur color-interpolation-filters="linearRGB" in="SourceGraphic" result="result1" stdDeviation="34.08 34.08"></feGaussianBlur></filter></defs><path d="M 112.00 164.50 L 856.00 164.50 L 856.00 859.50 L 112.00 859.50 Z" fill="#ffffff" fill-opacity="0.18" fill-rule="nonzero" node-id="42" stroke="none" target-height="695" target-width="744.0003" target-x="111.999695" target-y="164.5"></path><g node-id="49"><path d="M 512.01 168.00 C 305.59 168.00 168.00 305.59 168.00 512.01 C 168.00 718.41 288.40 856.00 512.01 856.00 C 718.41 856.00 856.00 718.41 856.00 512.01 C 856.00 305.59 718.41 168.00 512.01 168.00 Z" fill="#fecc4a" fill-rule="evenodd" group-id="1" node-id="45" stroke="none" target-height="688" target-width="688" target-x="168" target-y="168"></path><path d="M 512.01 168.00 C 305.59 168.00 168.00 305.59 168.00 512.01 C 168.00 718.41 288.40 856.00 512.01 856.00 C 718.41 856.00 856.00 718.41 856.00 512.01 C 856.00 305.59 718.41 168.00 512.01 168.00 Z" fill="url(#radialGradient-1)" fill-rule="evenodd" group-id="1" node-id="47" stroke="none" target-height="688" target-width="688" target-x="168" target-y="168"></path></g><g node-id="50"><path d="M 347.64 455.56 C 290.84 455.56 244.80 492.09 244.80 537.16 C 244.80 582.23 290.84 618.76 347.64 618.76 C 404.43 618.76 450.48 582.23 450.48 537.16 C 450.48 492.09 404.43 455.56 347.64 455.56 Z" fill="#f68240" fill-rule="evenodd" filter="url(#filter-3)" group-id="2" id="路径" node-id="18" stroke="none" target-height="163.20001" target-width="205.67671" target-x="244.8" target-y="455.55652"></path></g><g node-id="51"><path d="M 675.64 455.56 C 618.84 455.56 572.80 492.09 572.80 537.16 C 572.80 582.23 618.84 618.76 675.64 618.76 C 732.43 618.76 778.48 582.23 778.48 537.16 C 778.48 492.09 732.43 455.56 675.64 455.56 Z" fill="#f68240" fill-rule="evenodd" filter="url(#filter-4)" group-id="3" id="路径备份" node-id="19" stroke="none" target-height="163.20001" target-width="205.6767" target-x="572.8" target-y="455.55652"></path></g><path d="M 299.53 363.01 C 316.40 399.42 341.62 417.63 375.20 417.63 C 408.77 417.63 434.00 399.42 450.87 363.01" fill="none" id="路径-14" node-id="20" stroke="#000000" stroke-linecap="round" stroke-width="32" target-height="54.613678" target-width="151.33353" target-x="299.53256" target-y="363.01184"></path><path d="M 573.13 363.01 C 590.00 399.42 615.22 417.63 648.80 417.63 C 682.37 417.63 707.60 399.42 724.47 363.01" fill="none" id="路径-14备份" node-id="21" stroke="#000000" stroke-linecap="round" stroke-width="32" target-height="54.613678" target-width="151.33356" target-x="573.13257" target-y="363.01184"></path><path d="M 359.86 512.00 C 391.82 592.78 442.53 633.17 512.00 633.17 C 581.47 633.17 633.96 592.78 669.50 512.00" fill="none" id="路径-15" node-id="22" stroke="#000000" stroke-linecap="round" stroke-width="32" target-height="121.172485" target-width="309.63818" target-x="359.8595" target-y="512"></path></svg>